<svg xmlns="http://www.w3.org/2000/svg" width="1200" height="720" viewBox="0 0 1200 720">
  <rect width="1200" height="720" fill="#f5f7fa"/>
  <text x="64" y="82" font-family="Microsoft YaHei,Arial" font-size="32" font-weight="700" fill="#111827">三个可复用 AI Skill</text>
  <g font-family="Microsoft YaHei,Arial">
    <rect x="64" y="130" width="330" height="460" rx="14" fill="#fff" stroke="#dfe5ee"/>
    <rect x="434" y="130" width="330" height="460" rx="14" fill="#fff" stroke="#dfe5ee"/>
    <rect x="804" y="130" width="330" height="460" rx="14" fill="#fff" stroke="#dfe5ee"/>
    <text x="94" y="190" font-size="24" font-weight="700" fill="#005bbb">Ic Investment Memo Sop</text>
    <text x="464" y="190" font-size="24" font-weight="700" fill="#005bbb">CATL Codex PPT</text>
    <text x="834" y="190" font-size="24" font-weight="700" fill="#005bbb">Image2PPT</text>
    <text x="94" y="250" font-size="18" fill="#344054">把投资逻辑和 datapack</text><text x="94" y="282" font-size="18" fill="#344054">转成 PPT 图片生成指导文件</text>
    <text x="464" y="250" font-size="18" fill="#344054">逐页生成 CATL 风格</text><text x="464" y="282" font-size="18" fill="#344054">高密度 Slide 图片</text>
    <text x="834" y="250" font-size="18" fill="#344054">把排序图片高清组装为</text><text x="834" y="282" font-size="18" fill="#344054">16:9 贴图版 PPT</text>
    <rect x="94" y="350" width="250" height="70" rx="8" fill="#eaf3ff"/><text x="116" y="394" font-size="17" fill="#005bbb">输入：PDF / datapack</text>
    <rect x="464" y="350" width="250" height="70" rx="8" fill="#eaf3ff"/><text x="486" y="394" font-size="17" fill="#005bbb">输入：生成指导文件</text>
    <rect x="834" y="350" width="250" height="70" rx="8" fill="#eaf3ff"/><text x="856" y="394" font-size="17" fill="#005bbb">输入：Slide 图片文件夹</text>
    <text x="94" y="486" font-size="17" fill="#667085">输出：3 个 Markdown 文件</text>
    <text x="464" y="486" font-size="17" fill="#667085">输出：逐页图片 + manifest</text>
    <text x="834" y="486" font-size="17" fill="#667085">输出：贴图版 PPTX</text>
  </g>
</svg>
