<svg xmlns="http://www.w3.org/2000/svg" width="1200" height="720" viewBox="0 0 1200 720"><rect width="1200" height="720" fill="#f5f7fa"/><rect x="40" y="36" width="1120" height="648" rx="18" fill="#fff" stroke="#dfe5ee"/><text x="72" y="92" font-family="Microsoft YaHei,Arial" font-size="32" font-weight="700" fill="#111827">CATL 投资部 AI 化 SOP 主流程</text><text x="72" y="130" font-family="Microsoft YaHei,Arial" font-size="18" fill="#667085">从项目资料池到立项报告 Slides 的可复用生产线</text><g font-family="Microsoft YaHei,Arial" font-size="17" fill="#111827"><rect x="72" y="190" width="190" height="110" rx="10" fill="#eaf3ff" stroke="#005bbb"/><text x="96" y="232">1 资料收集</text><text x="96" y="264" fill="#667085">BP / 访谈 / 技术资料</text><rect x="318" y="190" width="190" height="110" rx="10" fill="#f8fafc" stroke="#dfe5ee"/><text x="342" y="232">2 行研补充</text><text x="342" y="264" fill="#667085">ChatGPT / Gemini</text><rect x="564" y="190" width="190" height="110" rx="10" fill="#f8fafc" stroke="#dfe5ee"/><text x="588" y="232">3 主逻辑</text><text x="588" y="264" fill="#667085">投资人判断</text><rect x="810" y="190" width="250" height="110" rx="10" fill="#eaf3ff" stroke="#005bbb"/><text x="834" y="232">4 逻辑扩展 PDF</text><text x="834" y="264" fill="#667085">主逻辑 + 支撑子逻辑</text><rect x="160" y="410" width="240" height="120" rx="10" fill="#fff7ed" stroke="#f59e0b"/><text x="184" y="452">5 PPT 生成指导文件</text><text x="184" y="484" fill="#667085">三个 Markdown 输入包</text><rect x="480" y="410" width="240" height="120" rx="10" fill="#ecfdf3" stroke="#12b76a"/><text x="504" y="452">6 Slide 图片生成</text><text x="504" y="484" fill="#667085">CATL 高密度页面</text><rect x="800" y="410" width="240" height="120" rx="10" fill="#f8fafc" stroke="#dfe5ee"/><text x="824" y="452">7 PPT 组装 / 可编辑化</text><text x="824" y="484" fill="#667085">Image2PPT + Codia.AI</text></g></svg>